<mxfile host="app.diagrams.net" modified="2022-08-05T14:53:11.369Z" agent="5.0 (Macintosh; Intel Mac OS X 10_15_7) AppleWebKit/605.1.15 (KHTML, like Gecko) Version/15.6 Safari/605.1.15" etag="fK1IQkKzhgCBdqg44J8_" version="20.2.2" type="github">
  <diagram id="5O03G68EHuf0n6KpXd5V" name="Page-1">
    <mxGraphModel dx="1426" dy="853" grid="1" gridSize="10" guides="1" tooltips="1" connect="1" arrows="1" fold="1" page="1" pageScale="1" pageWidth="827" pageHeight="1169" math="0" shadow="0">
      <root>
        <mxCell id="0" />
        <mxCell id="1" parent="0" />
        <UserObject label="Server" lucidchartObjectId="yJ.EdjDSSXOm" id="qB1hYOFijwZnPtHw68G5-1">
          <mxCell style="html=1;overflow=block;blockSpacing=1;whiteSpace=wrap;fontSize=16.7;fontColor=#3a414a;spacing=9;strokeColor=#3a414a;strokeOpacity=100;rounded=1;absoluteArcSize=1;arcSize=9;strokeWidth=0.8;" parent="1" vertex="1">
            <mxGeometry x="767" y="100" width="121" height="90" as="geometry" />
          </mxCell>
        </UserObject>
        <UserObject label="Authentication Service" lucidchartObjectId="2J.EnUBe3lIt" id="qB1hYOFijwZnPtHw68G5-2">
          <mxCell style="html=1;overflow=block;blockSpacing=1;whiteSpace=wrap;fontSize=16.7;fontColor=#3a414a;spacing=3.8;strokeOpacity=0;fillOpacity=0;rounded=1;absoluteArcSize=1;arcSize=9;fillColor=#ffffff;strokeWidth=0.8;" parent="1" vertex="1">
            <mxGeometry x="414" y="20" width="180" height="45" as="geometry" />
          </mxCell>
        </UserObject>
        <UserObject label="Client" lucidchartObjectId="H4.EOy3todFS" id="qB1hYOFijwZnPtHw68G5-3">
          <mxCell style="html=1;overflow=block;blockSpacing=1;whiteSpace=wrap;fontSize=16.7;fontColor=#3a414a;spacing=9;strokeColor=#3a414a;strokeOpacity=100;rounded=1;absoluteArcSize=1;arcSize=9;strokeWidth=0.8;" parent="1" vertex="1">
            <mxGeometry x="422" y="100" width="121" height="90" as="geometry" />
          </mxCell>
        </UserObject>
        <UserObject label="send credentials" lucidchartObjectId="X..EpsR9kbAL" id="qB1hYOFijwZnPtHw68G5-6">
          <mxCell style="html=1;overflow=block;blockSpacing=1;whiteSpace=wrap;fontSize=16.7;fontColor=#3a414a;spacing=3.8;strokeOpacity=0;fillOpacity=0;rounded=1;absoluteArcSize=1;arcSize=9;fillColor=#ffffff;strokeWidth=0.8;" parent="1" vertex="1">
            <mxGeometry x="557" y="227" width="181" height="45" as="geometry" />
          </mxCell>
        </UserObject>
        <UserObject label="Validated credentials and send JWT token in Response header. JWT will have username, list of authorities" lucidchartObjectId="ba~EbT0aO3X~" id="qB1hYOFijwZnPtHw68G5-8">
          <mxCell style="html=1;overflow=block;blockSpacing=1;whiteSpace=wrap;fontSize=16.7;fontColor=#3a414a;align=left;spacing=3.8;verticalAlign=top;strokeOpacity=0;fillOpacity=0;rounded=1;absoluteArcSize=1;arcSize=9;fillColor=#ffffff;dashed=1;fixDash=1;dashPattern=16 6;strokeWidth=0.8;" parent="1" vertex="1">
            <mxGeometry x="840" y="272" width="181" height="128" as="geometry" />
          </mxCell>
        </UserObject>
        <mxCell id="qB1hYOFijwZnPtHw68G5-10" value="" style="endArrow=classic;html=1;rounded=0;exitX=0.209;exitY=0;exitDx=0;exitDy=0;exitPerimeter=0;entryX=0.209;entryY=-1;entryDx=0;entryDy=0;entryPerimeter=0;" parent="1" edge="1">
          <mxGeometry width="50" height="50" relative="1" as="geometry">
            <mxPoint x="483.5" y="236.73399999999992" as="sourcePoint" />
            <mxPoint x="829.5" y="236.73399999999992" as="targetPoint" />
          </mxGeometry>
        </mxCell>
        <mxCell id="XbDfmIXRjWLkNUIp6heE-11" value="1" style="edgeLabel;html=1;align=center;verticalAlign=middle;resizable=0;points=[];" vertex="1" connectable="0" parent="qB1hYOFijwZnPtHw68G5-10">
          <mxGeometry x="0.7428" relative="1" as="geometry">
            <mxPoint as="offset" />
          </mxGeometry>
        </mxCell>
        <UserObject label="Services" lucidchartObjectId="H4.EOy3todFS" id="XbDfmIXRjWLkNUIp6heE-4">
          <mxCell style="html=1;overflow=block;blockSpacing=1;whiteSpace=wrap;fontSize=16.7;fontColor=#3a414a;spacing=9;strokeColor=#3a414a;strokeOpacity=100;rounded=1;absoluteArcSize=1;arcSize=9;strokeWidth=0.8;" vertex="1" parent="1">
            <mxGeometry x="150" y="100" width="121" height="90" as="geometry" />
          </mxCell>
        </UserObject>
        <mxCell id="XbDfmIXRjWLkNUIp6heE-5" value="" style="endArrow=none;html=1;rounded=0;entryX=0.5;entryY=1;entryDx=0;entryDy=0;" edge="1" parent="1" target="XbDfmIXRjWLkNUIp6heE-4">
          <mxGeometry width="50" height="50" relative="1" as="geometry">
            <mxPoint x="211" y="580" as="sourcePoint" />
            <mxPoint x="440" y="410" as="targetPoint" />
          </mxGeometry>
        </mxCell>
        <mxCell id="XbDfmIXRjWLkNUIp6heE-6" value="" style="endArrow=none;html=1;rounded=0;entryX=0.5;entryY=1;entryDx=0;entryDy=0;" edge="1" parent="1" target="qB1hYOFijwZnPtHw68G5-3">
          <mxGeometry width="50" height="50" relative="1" as="geometry">
            <mxPoint x="483" y="580" as="sourcePoint" />
            <mxPoint x="440" y="410" as="targetPoint" />
          </mxGeometry>
        </mxCell>
        <mxCell id="XbDfmIXRjWLkNUIp6heE-7" value="" style="endArrow=none;html=1;rounded=0;entryX=0.5;entryY=1;entryDx=0;entryDy=0;" edge="1" parent="1">
          <mxGeometry width="50" height="50" relative="1" as="geometry">
            <mxPoint x="826" y="580" as="sourcePoint" />
            <mxPoint x="826" y="190" as="targetPoint" />
          </mxGeometry>
        </mxCell>
        <mxCell id="XbDfmIXRjWLkNUIp6heE-8" value="" style="endArrow=classic;html=1;rounded=0;" edge="1" parent="1">
          <mxGeometry width="50" height="50" relative="1" as="geometry">
            <mxPoint x="830" y="410" as="sourcePoint" />
            <mxPoint x="480" y="410" as="targetPoint" />
          </mxGeometry>
        </mxCell>
        <mxCell id="XbDfmIXRjWLkNUIp6heE-12" value="2" style="edgeLabel;html=1;align=center;verticalAlign=middle;resizable=0;points=[];" vertex="1" connectable="0" parent="XbDfmIXRjWLkNUIp6heE-8">
          <mxGeometry x="-0.4171" y="-1" relative="1" as="geometry">
            <mxPoint as="offset" />
          </mxGeometry>
        </mxCell>
        <mxCell id="XbDfmIXRjWLkNUIp6heE-9" value="" style="endArrow=classic;html=1;rounded=0;" edge="1" parent="1">
          <mxGeometry width="50" height="50" relative="1" as="geometry">
            <mxPoint x="480" y="460" as="sourcePoint" />
            <mxPoint x="210" y="460" as="targetPoint" />
          </mxGeometry>
        </mxCell>
        <mxCell id="XbDfmIXRjWLkNUIp6heE-13" value="3" style="edgeLabel;html=1;align=center;verticalAlign=middle;resizable=0;points=[];" vertex="1" connectable="0" parent="XbDfmIXRjWLkNUIp6heE-9">
          <mxGeometry x="-0.4963" y="-1" relative="1" as="geometry">
            <mxPoint as="offset" />
          </mxGeometry>
        </mxCell>
        <mxCell id="XbDfmIXRjWLkNUIp6heE-10" value="Client makes request to consumable sevices with JWT in header&amp;nbsp;" style="text;html=1;strokeColor=none;fillColor=none;align=left;verticalAlign=middle;whiteSpace=wrap;rounded=0;" vertex="1" parent="1">
          <mxGeometry x="490" y="480" width="160" height="30" as="geometry" />
        </mxCell>
      </root>
    </mxGraphModel>
  </diagram>
</mxfile>
